<?xml version="1.0" encoding="UTF-8"?>
<svg width="118px" height="29px" viewBox="0 0 118 29" version="1.1" xmlns="http://www.w3.org/2000/svg" xmlns:xlink="http://www.w3.org/1999/xlink">
    <!-- Generator: Sketch 58 (84663) - https://sketch.com -->
    <title>LoomCHAT</title>
    <desc>Created with Sketch.</desc>
    <g id="Symbols" stroke="none" stroke-width="1" fill="none" fill-rule="evenodd">
        <g id="Navigation" transform="translate(1.000000, -6.000000)" fill="#000000" fill-rule="nonzero">
            <g id="LoomCHAT">
                <path d="M11.6986292,15.4386524 C12.9507492,14.978951 13.9885312,14.432071 14.812,13.798 C15.745338,13.0793297 16.4266645,12.3140041 16.856,11.502 C17.2853355,10.6899959 17.5,9.94800336 17.5,9.276 C17.5,8.79066424 17.3833345,8.38933492 17.15,8.072 C16.9166655,7.75466508 16.5853355,7.596 16.156,7.596 C15.763998,7.596 15.3766686,7.81533114 14.994,8.254 C14.6113314,8.69266886 14.2380018,9.27599636 13.874,10.004 C13.5099982,10.7320036 13.1460018,11.5766619 12.782,12.538 L12.2499285,13.953075 L12.2499285,13.953075 L11.6986292,15.4386524 L11.6986292,15.4386524 Z M11.0711097,17.1023757 L10.514,18.572 L10.514,18.572 C10.1313314,19.580005 9.72066886,20.5553286 9.282,21.498 C8.84333114,22.4406714 8.37666914,23.3226626 7.882,24.144 C7.61346857,24.5898635 7.33118741,25.0054692 7.03515393,25.3908205 C7.5116508,25.6475087 7.99459855,25.9272347 8.484,26.23 C9.36507107,26.7750694 10.2580781,27.3529852 11.1630383,27.9637588 L11.844,28.428 C12.9826724,29.2120039 14.1119944,29.9446633 15.232,30.626 C16.3520056,31.3073367 17.4393281,31.8719978 18.494,32.32 C19.5486719,32.7680022 20.5519952,32.992 21.504,32.992 C22.512005,32.992 23.445329,32.6653366 24.304,32.012 C25.162671,31.3586634 25.9279966,30.2293414 26.6,28.624 C26.674667,28.3813321 26.809999,28.222667 27.006,28.148 C27.202001,28.073333 27.3839992,28.0639997 27.552,28.12 C27.7200008,28.1760003 27.8459996,28.2926658 27.93,28.47 C28.0140004,28.6473342 28.0000006,28.8853318 27.888,29.184 C27.1039961,31.0880095 26.1660055,32.4319961 25.074,33.216 C23.9819945,34.0000039 22.7920064,34.392 21.504,34.392 C20.3466609,34.392 19.1986724,34.1680022 18.06,33.72 C16.9213276,33.2719978 15.7966722,32.7073367 14.686,32.026 C13.5753278,31.3446633 12.4740055,30.6120039 11.382,29.828 C10.2899945,29.0439961 9.22600518,28.3113367 8.19,27.63 C7.49547217,27.1732385 6.81353504,26.7689137 6.14417951,26.4170206 C5.58831844,26.9777776 4.99159714,27.4241001 4.354,27.756 C3.67266326,28.1106684 2.93067068,28.288 2.12799993,28.288 C1.06399468,28.288 0.28933576,28.0593356 -0.196,27.602 C-0.68133576,27.1446644 -0.90533352,26.6360028 -0.868,26.076 C-0.83066648,25.5159972 -0.53666942,25.0073356 0.014,24.55 C0.56466942,24.0926644 1.34399496,23.864 2.352,23.864 C3.26667124,23.864 4.24199482,24.0879978 5.278,24.536 C5.43433383,24.6036038 5.59141114,24.6738641 5.74923206,24.7467808 C6.16350923,24.2390211 6.55709725,23.6647625 6.93,23.024 C7.59266998,21.8853276 8.2039972,20.616007 8.764,19.216 C8.99727898,18.6328025 9.22569776,18.0528479 9.44925748,17.4761331 C8.3582872,17.6715877 7.15920481,17.7848761 5.852,17.816 C5.60933212,17.816 5.4180007,17.7413341 5.278,17.592 C5.1379993,17.4426659 5.05866676,17.2840008 5.04,17.116 C5.02133324,16.9479992 5.07266606,16.7893341 5.194,16.64 C5.31533394,16.4906659 5.5159986,16.416 5.796,16.416 C7.38714945,16.3878381 8.80036923,16.2295619 10.0356825,15.9411682 L10.36,15.072 L10.36,15.072 C10.7706687,13.9333276 11.1859979,12.8320053 11.606,11.768 C12.0260021,10.7039947 12.469331,9.76133744 12.936,8.94 C13.402669,8.11866256 13.9019973,7.45600252 14.434,6.952 C14.9660027,6.44799748 15.5399969,6.196 16.156,6.196 C17.0333377,6.196 17.7099976,6.48533044 18.186,7.064 C18.6620024,7.64266956 18.9,8.37999552 18.9,9.276 C18.9,10.0973374 18.6620024,10.9933285 18.186,11.964 C17.7099976,12.9346715 16.9493386,13.8446624 15.904,14.694 C14.8586614,15.5433376 13.5100083,16.2619971 11.858,16.85 C11.603978,16.9404146 11.3416813,17.0245398 11.0711097,17.1023757 Z M4.78665996,25.7729305 C3.94329657,25.433642 3.13174944,25.264 2.352,25.264 C1.81066396,25.264 1.38133492,25.3479992 1.064,25.516 C0.74666508,25.6840008 0.56933352,25.8706656 0.532,26.076 C0.49466648,26.2813344 0.60199874,26.4679992 0.854,26.636 C1.10600126,26.8040008 1.53066368,26.888 2.12799993,26.888 C3.00067102,26.888 3.80666869,26.5860632 4.54601315,25.9821813 L4.78665996,25.7729305 L4.78665996,25.7729305 Z M23.856,20.252 L23.912,20.252 C23.7439992,20.1399994 23.5200014,20.0046675 23.24,19.846 C22.9599986,19.6873325 22.6893346,19.5006677 22.428,19.286 C22.1666654,19.0713323 21.938001,18.8193348 21.742,18.53 C21.545999,18.2406652 21.448,17.9186684 21.448,17.564 L22.428,16.416 C22.7453349,16.1359986 23.0159989,15.996 23.24,15.996 C23.781336,15.996 24.2339982,16.0566661 24.598,16.178 C24.9620018,16.2993339 25.1719997,16.6399972 25.228,17.2 C25.2653335,17.5173349 25.2746668,17.8533316 25.256,18.208 C25.2373332,18.5626684 25.1813338,18.8986651 25.088,19.216 C25.5920025,19.3840008 26.1193306,19.4446669 26.67,19.398 C27.2206694,19.3513331 27.7479975,19.230001 28.252,19.034 C28.7560025,18.837999 29.2226645,18.5906682 29.652,18.292 C30.0813355,17.9933318 30.4266654,17.6760017 30.688,17.34 L31.22,16.78 C31.3693341,16.6306659 31.4859996,16.5280003 31.57,16.472 C31.6540004,16.4159997 31.733333,16.3786668 31.808,16.36 C32.0133344,16.36 32.1859993,16.4439992 32.326,16.612 C32.4660007,16.7800008 32.573333,16.9386659 32.648,17.088 C32.2933316,17.629336 31.8126697,18.1613307 31.206,18.684 C30.5993303,19.2066693 29.927337,19.6406649 29.19,19.986 C28.452663,20.3313351 27.6826707,20.5646661 26.88,20.686 C26.0773293,20.8073339 25.3120036,20.7280014 24.584,20.448 L24.472,20.896 L23.856,20.252 Z M24.164,18.88 C23.8279983,18.6933324 23.5293346,18.5066676 23.268,18.32 C23.0066654,18.1333324 22.876,17.8813349 22.876,17.564 C22.876,17.3026654 22.9179996,17.1066673 23.002,16.976 C23.0860004,16.8453327 23.1839994,16.7613335 23.296,16.724 C23.5200011,16.724 23.6973327,16.7939993 23.828,16.934 C23.9586673,17.0740007 24.0566663,17.2466656 24.122,17.452 C24.1873337,17.6573344 24.2246666,17.8859987 24.234,18.138 C24.2433334,18.3900013 24.2200003,18.6373321 24.164,18.88 Z M22.1005347,16.0880396 C22.2779461,15.9267016 22.4757662,15.7980229 22.694,15.702 C22.9273345,15.5993328 23.1653321,15.5573332 23.408,15.576 C24.1546704,15.5946668 24.6773318,15.8093313 24.976,16.22 C25.2746682,16.6306687 25.424,17.1346637 25.424,17.732 C25.424,18.273336 25.3120011,18.8706634 25.088,19.524 C24.8639989,20.1773366 24.6026682,20.8119969 24.304,21.428 C24.0053318,22.0440031 23.7066682,22.5993309 23.408,23.094 L23.1034995,23.5894696 C22.9518331,23.8308234 22.8293338,24.015666 22.736,24.144 C22.3999983,24.5920022 22.0220021,25.0213313 21.602,25.432 C21.1819979,25.8426687 20.7433356,26.1926652 20.286,26.482 C19.8286644,26.7713348 19.3573358,26.9719994 18.872,27.084 C18.3866642,27.1960006 17.8920025,27.1773341 17.388,27.028 C16.7346634,26.8226656 16.2866679,26.4820024 16.044,26.006 C15.8013321,25.5299976 15.68,24.9933363 15.68,24.396 C15.68,24.003998 15.7266662,23.5980021 15.82,23.178 C15.9133338,22.7579979 16.0299993,22.3473353 16.17,21.946 C16.3100007,21.5446647 16.4546659,21.1666684 16.604,20.812 C16.7533341,20.4573316 16.8933327,20.1680011 17.024,19.944 C17.2293344,19.5893316 17.467332,19.216002 17.738,18.824 C18.008668,18.431998 18.3166649,18.040002 18.662,17.648 C19.0073351,17.255998 19.3806647,16.8873351 19.782,16.542 C20.1833353,16.1966649 20.6079978,15.9026679 21.056,15.66 C21.2426676,15.5479998 21.4246658,15.5199997 21.602,15.576 C21.7793342,15.6320003 21.9146662,15.7299993 22.008,15.87 C22.0379066,15.9148599 22.0615843,15.9621153 22.0790331,16.0117664 L22.1005347,16.0880396 L22.1005347,16.0880396 Z M21.5274126,17.0063295 C20.8272205,17.4214349 20.2127548,17.9573206 19.684,18.614 C19.2017754,19.2128919 18.7908523,19.7890913 18.4512227,20.3426102 L18.256,20.672 C18.1439994,20.8586676 18.0180007,21.0966652 17.878,21.386 C17.7379993,21.6753348 17.6120006,21.9879983 17.5,22.324 C17.3879994,22.6600017 17.2900004,23.0099982 17.206,23.374 C17.1219996,23.7380018 17.08,24.0786651 17.08,24.396 C17.08,24.6760014 17.1453327,24.9373321 17.276,25.18 C17.4066673,25.4226679 17.5746656,25.5906662 17.78,25.684 C18.1160017,25.7773338 18.4566649,25.7726672 18.802,25.67 C19.1473351,25.5673328 19.4833317,25.4040011 19.81,25.18 C20.1366683,24.9559989 20.4539985,24.6806683 20.762,24.354 C20.9930012,24.1089988 21.2108748,23.8508754 21.4156247,23.5796256 L21.616,23.304 C21.7466673,23.1359992 21.9426654,22.8326689 22.204,22.394 C22.4653346,21.9553311 22.731332,21.465336 23.002,20.924 C23.272668,20.382664 23.5106656,19.8273362 23.716,19.258 C23.9213344,18.6886638 24.024,18.1800022 24.024,17.732 C24.024,17.5266656 23.9726672,17.3400008 23.87,17.172 C23.7673328,17.0039992 23.5946679,16.92 23.352,16.92 C23.2399994,16.92 23.1326672,16.9713328 23.03,17.074 C22.9273328,17.1766672 22.876,17.3399989 22.876,17.564 L21.448,17.564 C21.448,17.4356607 21.4597647,17.3102635 21.4832944,17.1878075 L21.5274126,17.0063295 L21.5274126,17.0063295 Z M32.5169117,16.9656864 C31.7878102,17.3862482 31.1501788,17.9356812 30.604,18.614 C30.0253304,19.3326703 29.5493352,20.0186634 29.176,20.672 C29.0639994,20.8586676 28.9380007,21.0966652 28.798,21.386 C28.6579993,21.6753348 28.5320006,21.9879983 28.42,22.324 C28.3079994,22.6600017 28.2100004,23.0099982 28.126,23.374 C28.0419996,23.7380018 28,24.0786651 28,24.396 C28,24.6760014 28.0653327,24.9373321 28.196,25.18 C28.3266673,25.4226679 28.4946656,25.5906662 28.7,25.684 C29.0360017,25.7773338 29.3766649,25.7726672 29.722,25.67 C30.0673351,25.5673328 30.4033317,25.4040011 30.73,25.18 C31.0566683,24.9559989 31.3739985,24.6806683 31.682,24.354 C31.9130012,24.1089988 32.1308748,23.8508754 32.3356247,23.5796256 L32.536,23.304 C32.6666673,23.1359992 32.8626654,22.8326689 33.124,22.394 C33.3118938,22.0786069 33.5021978,21.7366818 33.6949151,21.3682192 C33.2286595,20.8005901 32.8890243,20.2371888 32.676,19.678 C32.4519989,19.0899971 32.34,18.5533358 32.34,18.068 C32.34,17.7403505 32.3777409,17.439661 32.4532233,17.16593 L32.5169117,16.9656864 L32.5169117,16.9656864 Z M34.3725871,19.9376934 C34.4656681,19.7133911 34.5534722,19.486827 34.636,19.258 C34.8413344,18.6886638 34.944,18.1800022 34.944,17.732 C34.944,17.5266656 34.8973338,17.3540007 34.804,17.214 C34.7106662,17.0739993 34.5333346,16.9946668 34.272,16.976 C34.1226659,16.9573332 33.9966672,17.0553323 33.894,17.27 C33.7913328,17.4846677 33.74,17.7506651 33.74,18.068 C33.74,18.4226684 33.8286658,18.8146645 34.006,19.244 C34.0689441,19.3963911 34.1442345,19.5499572 34.2318715,19.7046989 L34.3725871,19.9376934 L34.3725871,19.9376934 Z M35.3847523,21.0867712 C35.5413318,21.2098933 35.688414,21.3003026 35.826,21.358 C36.1153348,21.4793339 36.3906654,21.54 36.652,21.54 C36.9693349,21.54 37.2819985,21.4653341 37.59,21.316 C37.8980015,21.1666659 38.2386648,20.8680022 38.612,20.42 C38.7800008,20.2333324 38.9526658,20.1306668 39.13,20.112 C39.3073342,20.0933332 39.4519994,20.1399994 39.564,20.252 C39.6760006,20.3640006 39.7413332,20.5133324 39.76,20.7 C39.7786668,20.8866676 39.7040008,21.0826656 39.536,21.288 C38.994664,21.9413366 38.5140021,22.3799989 38.094,22.604 C37.6739979,22.8280011 37.193336,22.94 36.652,22.94 C36.2226645,22.94 35.7793356,22.8560008 35.322,22.688 C35.1385598,22.6206138 34.9453604,22.5141867 34.7424008,22.3687179 C34.6042676,22.623455 34.4661343,22.8652151 34.328,23.094 L34.0234995,23.5894696 C33.8718331,23.8308234 33.7493338,24.015666 33.656,24.144 C33.3199983,24.5920022 32.9420021,25.0213313 32.522,25.432 C32.1019979,25.8426687 31.6633356,26.1926652 31.206,26.482 C30.7486644,26.7713348 30.2773358,26.9719994 29.792,27.084 C29.3066642,27.1960006 28.8120025,27.1773341 28.308,27.028 C27.6546634,26.8226656 27.2066679,26.4820024 26.964,26.006 C26.7213321,25.5299976 26.6,24.9933363 26.6,24.396 C26.6,24.003998 26.6466662,23.5980021 26.74,23.178 C26.8333338,22.7579979 26.9499993,22.3473353 27.09,21.946 C27.2300007,21.5446647 27.3746659,21.1666684 27.524,20.812 C27.6733341,20.4573316 27.8133327,20.1680011 27.944,19.944 C28.1493344,19.5893316 28.387332,19.216002 28.658,18.824 C28.928668,18.431998 29.2366649,18.040002 29.582,17.648 C29.9273351,17.255998 30.3006647,16.8873351 30.702,16.542 C31.1033353,16.1966649 31.5279978,15.9026679 31.976,15.66 C32.1626676,15.5479998 32.3446658,15.5199997 32.522,15.576 C32.6993342,15.6320003 32.8346662,15.7299993 32.928,15.87 C32.981733,15.9505995 33.0153584,16.0389318 33.0288764,16.1349979 C33.3993267,15.74524 33.8323643,15.5589091 34.328,15.576 C35.0746704,15.5946668 35.5973318,15.8093313 35.896,16.22 C36.1946682,16.6306687 36.344,17.1346637 36.344,17.732 C36.344,18.273336 36.2320011,18.8706634 36.008,19.524 C35.8860874,19.8795783 35.7531176,20.2296245 35.6090891,20.5741417 L35.3847523,21.0867712 L35.3847523,21.0867712 Z M44.156,26.692 C44.0999997,26.8973344 43.9926675,27.0513328 43.834,27.154 C43.6753325,27.2566672 43.5120008,27.3033334 43.344,27.294 C43.1759992,27.2846666 43.0313339,27.2146673 42.91,27.084 C42.7886661,26.9533327 42.7373332,26.7666679 42.756,26.524 C42.7933335,25.9639972 42.9566652,25.3106704 43.246,24.564 C43.5353348,23.8173296 43.8386651,23.0613372 44.156,22.296 C44.4920017,21.4746626 44.8046652,20.6580041 45.094,19.846 C45.3833348,19.0339959 45.528,18.3853358 45.528,17.9 C45.528,17.507998 45.3600017,17.312 45.024,17.312 C44.4639972,17.312 43.8853363,17.5126647 43.288,17.914 C42.6906637,18.3153353 42.1306693,18.8006638 41.608,19.37 C41.0853307,19.9393362 40.628002,20.5366635 40.236,21.162 C39.843998,21.7873365 39.5826673,22.3239978 39.452,22.772 L38.304,21.988 C38.5466679,21.521331 38.8919978,20.9426701 39.34,20.252 C39.7880022,19.5613299 40.3106637,18.8940032 40.908,18.25 C41.5053363,17.6059968 42.1539965,17.0553356 42.854,16.598 C43.5540035,16.1406644 44.2773296,15.912 45.024,15.912 C45.7333369,15.912 46.2279986,16.0939982 46.508,16.458 C46.7880014,16.8220018 46.928,17.3026637 46.928,17.9 C46.928,18.5533366 46.7740015,19.3139957 46.466,20.182 C46.1579985,21.0500043 45.8173352,21.9413288 45.444,22.856 C45.1453318,23.5653369 44.8793345,24.2746631 44.646,24.984 L44.4841246,25.4897512 C44.3353745,25.9692512 44.2260003,26.3699984 44.156,26.692 Z M40.852,15.016 C40.9453338,14.8293324 41.0759992,14.7220001 41.244,14.694 C41.4120008,14.6659999 41.5753325,14.6939996 41.734,14.778 C41.8926675,14.8620004 42.0139996,14.9786659 42.098,15.128 C42.1680003,15.2524451 42.1764264,15.3898514 42.123278,15.5402219 L42.084,15.632 C41.5239972,16.8266726 41.010669,18.0493271 40.544,19.3 C40.151998,20.3640053 39.7880017,21.5446602 39.452,22.842 C39.1159983,24.1393398 38.9293335,25.4039938 38.892,26.636 C38.892,26.8413344 38.8173341,26.9999994 38.668,27.112 C38.5186659,27.2240006 38.3600008,27.28 38.192,27.28 C38.0239992,27.28 37.8746673,27.2286672 37.744,27.126 C37.6133327,27.0233328 37.548,26.8600011 37.548,26.636 C37.5853335,25.3479936 37.7719983,24.0226735 38.108,22.66 C38.4440017,21.2973265 38.8173313,20.0466724 39.228,18.908 C39.7133358,17.58266 40.2546637,16.2853397 40.852,15.016 Z M54.572,25.348 C53.7879961,25.9453363 53.1300027,26.384 52.598,26.664 C52.0659973,26.9440014 51.5853355,27.084 51.156,27.084 C50.5399969,27.084 50.096668,26.8833353 49.826,26.482 C49.555332,26.0806647 49.42,25.5533366 49.42,24.9 C49.42,24.2653302 49.555332,23.5140043 49.826,22.646 C50.096668,21.7779957 50.4373313,20.9426707 50.848,20.14 C51.2586687,19.281329 51.464,18.6000025 51.464,18.096 C51.464,17.554664 51.2400022,17.284 50.792,17.284 C50.2133304,17.284 49.4713379,17.6479964 48.566,18.376 C47.6606621,19.1040036 46.741338,20.2613254 45.808,21.848 L44.66,21.232 C45.7240053,19.439991 46.8113278,18.1006711 47.922,17.214 C49.0326722,16.3273289 49.9893293,15.884 50.792,15.884 C51.4266698,15.884 51.9306648,16.0753314 52.304,16.458 C52.6773352,16.8406686 52.864,17.3866631 52.864,18.096 C52.864,18.8240036 52.6026693,19.7106614 52.08,20.756 C51.7066648,21.4653369 51.4033345,22.1933296 51.17,22.94 C50.9366655,23.6866704 50.82,24.3399972 50.82,24.9 C50.82,25.4226693 50.9319989,25.684 51.156,25.684 C51.6413358,25.684 52.252663,25.4226693 52.99,24.9 C53.6351699,24.4426644 54.2839042,23.8495653 54.9362178,23.1206887 L55.216,22.8 C55.3840008,22.5946656 55.5613324,22.4826668 55.748,22.464 C55.9346676,22.4453332 56.0793328,22.4966661 56.182,22.618 C56.2846672,22.7393339 56.3313334,22.9119989 56.322,23.136 C56.3126666,23.3600011 56.2146676,23.5933321 56.028,23.836 C55.8226656,24.0973346 55.5986679,24.3446655 55.356,24.578 L54.8457781,25.0757774 C54.7565931,25.1639254 54.6653338,25.2546662 54.572,25.348 Z M62.831125,27.3999023 C66.6250703,27.3999023 69.3731172,25.0107422 69.4961641,21.6269531 L65.8867891,21.6269531 C65.671457,23.2163086 64.4614961,24.262207 62.8413789,24.262207 C60.7700898,24.262207 59.5088594,22.4780273 59.5088594,19.5864258 C59.5088594,16.7050781 60.7700898,14.9414062 62.831125,14.9414062 C64.4512422,14.9414062 65.671457,16.0283203 65.8662812,17.6381836 L69.4859102,17.6381836 C69.3731172,14.2851562 66.553293,11.8037109 62.831125,11.8037109 C58.3911836,11.8037109 55.6738984,14.7670898 55.6738984,19.5966797 C55.6738984,24.4262695 58.4014375,27.3999023 62.831125,27.3999023 Z M85.6255586,27 L85.6255586,12.2036133 L81.8726289,12.2036133 L81.8726289,18.0073242 L75.9766328,18.0073242 L75.9766328,12.2036133 L72.2134492,12.2036133 L72.2134492,27 L75.9766328,27 L75.9766328,21.0322266 L81.8726289,21.0322266 L81.8726289,27 L85.6255586,27 Z M98.5557344,27 L102.657297,27 L97.6841523,12.2036133 L93.0801484,12.2036133 L88.1172578,27 L91.8496797,27 L92.803293,23.7495117 L97.6328828,23.7495117 L98.5557344,27 Z M95.1411836,15.5361328 L95.3360078,15.5361328 L96.9253633,21.0424805 L93.5210664,21.0424805 L95.1411836,15.5361328 Z M112.347238,27 L108.594309,27 L108.594309,15.2285156 L104.328684,15.2285156 L104.328684,12.2036133 L116.623117,12.2036133 L116.623117,15.2285156 L112.347238,15.2285156 L112.347238,27 Z"></path>
            </g>
        </g>
    </g>
</svg>